<svg width="19" height="18" viewBox="0 0 19 18" fill="none" xmlns="http://www.w3.org/2000/svg">
<path d="M1.93511 7.80189C1.93511 7.80189 9.21371 4.18924 11.738 2.91714C12.7057 2.40834 15.9874 0.78004 15.9874 0.78004C15.9874 0.78004 17.5021 0.0677207 17.3758 1.79771C17.3337 2.5101 16.9972 5.00332 16.6606 7.70013C16.1557 11.5164 15.6087 15.6887 15.6087 15.6887C15.6087 15.6887 15.5246 16.8591 14.8094 17.0626C14.0942 17.2661 12.9161 16.3503 12.7058 16.1467C12.5374 15.9941 9.55027 13.7043 8.45639 12.5849C8.16186 12.2796 7.8253 11.669 8.49843 10.9567C10.0131 9.27752 11.8222 7.19133 12.9161 5.86838C13.421 5.25776 13.9258 3.83305 11.8222 5.56303C8.83505 8.05633 5.88995 10.3969 5.88995 10.3969C5.88995 10.3969 5.21677 10.9057 3.9546 10.4478C2.69237 9.9899 1.21982 9.37927 1.21982 9.37927C1.21982 9.37927 0.210136 8.61604 1.93511 7.80189Z" fill="white"/>
</svg>
