<svg width="36" height="35" viewBox="0 0 36 35" fill="none" xmlns="http://www.w3.org/2000/svg">
<g clip-path="url(#clip0_80_276)">
<path d="M21.1436 3.06152C23.8 3.06026 26.3765 3.96975 28.4435 5.63832C30.5105 7.30689 31.9429 9.63367 32.502 12.2306C33.061 14.8275 32.7128 17.5376 31.5154 19.9089C30.3181 22.2801 28.3439 24.1692 25.9223 25.261C25.1482 26.9724 23.9706 28.4704 22.4905 29.6267C21.0103 30.7829 19.2718 31.5629 17.424 31.8998C15.5762 32.2366 13.6743 32.1202 11.8814 31.5606C10.0884 31.001 8.45797 30.0148 7.12986 28.6867C5.80174 27.3586 4.81558 25.7281 4.25596 23.9352C3.69634 22.1423 3.57995 20.2403 3.91678 18.3925C4.25361 16.5447 5.03361 14.8062 6.18988 13.3261C7.34615 11.8459 8.84418 10.6683 10.5555 9.89427C11.476 7.85749 12.9646 6.12951 14.8426 4.91757C16.7206 3.70562 18.9084 3.06118 21.1436 3.06152ZM16.7887 13.2228H13.8855V14.6744C12.9421 14.6721 12.0349 15.0373 11.3562 15.6925C10.6775 16.3477 10.2806 17.2415 10.2496 18.1844C10.2186 19.1272 10.5561 20.0451 11.1904 20.7434C11.8246 21.4418 12.7059 21.8656 13.6474 21.9252L13.8855 21.9325H16.7887L16.9194 21.9441C17.0867 21.9744 17.2381 22.0625 17.3471 22.193C17.4561 22.3236 17.5159 22.4882 17.5159 22.6583C17.5159 22.8284 17.4561 22.993 17.3471 23.1236C17.2381 23.2541 17.0867 23.3422 16.9194 23.3725L16.7887 23.3841H10.9823V26.2873H13.8855V27.7389H16.7887V26.2873C17.7321 26.2896 18.6393 25.9245 19.318 25.2693C19.9968 24.614 20.3937 23.7203 20.4246 22.7774C20.4556 21.8345 20.1182 20.9166 19.4839 20.2183C18.8496 19.52 17.9683 19.0961 17.0268 19.0365L16.7887 19.0293H13.8855L13.7549 19.0177C13.5875 18.9874 13.4361 18.8992 13.3271 18.7687C13.2181 18.6382 13.1584 18.4735 13.1584 18.3035C13.1584 18.1334 13.2181 17.9687 13.3271 17.8382C13.4361 17.7077 13.5875 17.6196 13.7549 17.5893L13.8855 17.5777H19.692V14.6744H16.7887V13.2228ZM21.1436 5.96475C19.9136 5.96331 18.6973 6.22305 17.5752 6.72679C16.4532 7.23053 15.4508 7.96678 14.6345 8.88685C16.2752 8.78725 17.9184 9.03708 19.4553 9.61983C20.9923 10.2026 22.388 11.105 23.5503 12.2673C24.7125 13.4297 25.6147 14.8255 26.1973 16.3626C26.7798 17.8996 27.0295 19.5428 26.9297 21.1835C28.2495 20.01 29.1814 18.4631 29.6018 16.7478C30.0223 15.0325 29.9113 13.2299 29.2837 11.5792C28.6561 9.92842 27.5414 8.50745 26.0877 7.50474C24.6339 6.50203 22.9096 5.96496 21.1436 5.96475Z" fill="#A0F901"/>
</g>
<defs>
<clipPath id="clip0_80_276">
<rect width="34.8387" height="34.8387" fill="white" transform="translate(0.821045 0.158203)"/>
</clipPath>
</defs>
</svg>
