<svg width="36" height="35" viewBox="0 0 36 35" fill="none" xmlns="http://www.w3.org/2000/svg">
<g clip-path="url(#clip0_80_241)">
<path d="M19.6921 1.60986L19.6935 6.0547C22.2516 6.37811 24.6294 7.54323 26.4524 9.36658C28.2755 11.1899 29.4403 13.5679 29.7633 16.126H34.2082V19.0292L29.7633 19.0307C29.44 21.5885 28.2751 23.9661 26.452 25.7892C24.629 27.6123 22.2513 28.7772 19.6935 29.1005L19.6921 33.5453H16.7888V29.1005C14.2307 28.7775 11.8528 27.6127 10.0294 25.7896C8.20607 23.9665 7.04095 21.5887 6.71754 19.0307L2.27271 19.0292V16.126H6.71754C7.04065 13.5677 8.20564 11.1895 10.029 9.36617C11.8524 7.5428 14.2305 6.37781 16.7888 6.0547V1.60986H19.6921ZM18.2404 14.6744C17.4705 14.6744 16.732 14.9803 16.1876 15.5247C15.6431 16.0692 15.3372 16.8076 15.3372 17.5776C15.3372 18.3476 15.6431 19.086 16.1876 19.6305C16.732 20.175 17.4705 20.4808 18.2404 20.4808C19.0104 20.4808 19.7489 20.175 20.2933 19.6305C20.8378 19.086 21.1437 18.3476 21.1437 17.5776C21.1437 16.8076 20.8378 16.0692 20.2933 15.5247C19.7489 14.9803 19.0104 14.6744 18.2404 14.6744Z" fill="#A0F901"/>
</g>
<defs>
<clipPath id="clip0_80_241">
<rect width="34.8387" height="34.8387" fill="white" transform="translate(0.821045 0.158203)"/>
</clipPath>
</defs>
</svg>
