<svg width="36" height="35" viewBox="0 0 36 35" fill="none" xmlns="http://www.w3.org/2000/svg">
<path d="M18.2404 32.0938C10.2231 32.0938 3.72424 25.5949 3.72424 17.5777C3.72424 9.56039 10.2231 3.06152 18.2404 3.06152C26.2576 3.06152 32.7565 9.56039 32.7565 17.5777C32.7565 25.5949 26.2576 32.0938 18.2404 32.0938ZM10.9823 17.5777C10.9823 19.5026 11.747 21.3487 13.1081 22.7099C14.4693 24.071 16.3154 24.8357 18.2404 24.8357C20.1653 24.8357 22.0114 24.071 23.3726 22.7099C24.7337 21.3487 25.4984 19.5026 25.4984 17.5777H22.5952C22.5952 18.7326 22.1364 19.8403 21.3197 20.657C20.503 21.4737 19.3953 21.9325 18.2404 21.9325C17.0854 21.9325 15.9777 21.4737 15.161 20.657C14.3443 19.8403 13.8855 18.7326 13.8855 17.5777H10.9823Z" fill="#A0F901"/>
</svg>
