<svg width="36" height="35" viewBox="0 0 36 35" fill="none" xmlns="http://www.w3.org/2000/svg">
<path d="M18.2404 16.126C20.1653 16.126 22.0114 16.8907 23.3726 18.2519C24.7337 19.613 25.4984 21.4591 25.4984 23.3841V32.0938H10.9823V23.3841C10.9823 21.4591 11.747 19.613 13.1081 18.2519C14.4693 16.8907 16.3154 16.126 18.2404 16.126ZM8.49715 20.4896C8.26613 21.2688 8.12967 22.073 8.09069 22.8847L8.07908 23.3841V32.0938H3.72424V25.5615C3.72396 24.3096 4.1859 23.1017 5.02145 22.1694C5.85701 21.2371 7.00735 20.6462 8.25182 20.5099L8.4986 20.4896H8.49715ZM27.9836 20.4896C29.2754 20.5683 30.4885 21.1369 31.3754 22.0794C32.2624 23.0219 32.7563 24.2673 32.7565 25.5615V32.0938H28.4017V23.3841C28.4017 22.3781 28.2565 21.407 27.9836 20.4896ZM8.80489 11.7712C9.76737 11.7712 10.6904 12.1535 11.371 12.8341C12.0516 13.5147 12.4339 14.4378 12.4339 15.4002C12.4339 16.3627 12.0516 17.2858 11.371 17.9663C10.6904 18.6469 9.76737 19.0293 8.80489 19.0293C7.84241 19.0293 6.91935 18.6469 6.23878 17.9663C5.5582 17.2858 5.17586 16.3627 5.17586 15.4002C5.17586 14.4378 5.5582 13.5147 6.23878 12.8341C6.91935 12.1535 7.84241 11.7712 8.80489 11.7712ZM27.6759 11.7712C28.6383 11.7712 29.5614 12.1535 30.242 12.8341C30.9225 13.5147 31.3049 14.4378 31.3049 15.4002C31.3049 16.3627 30.9225 17.2858 30.242 17.9663C29.5614 18.6469 28.6383 19.0293 27.6759 19.0293C26.7134 19.0293 25.7903 18.6469 25.1097 17.9663C24.4292 17.2858 24.0468 16.3627 24.0468 15.4002C24.0468 14.4378 24.4292 13.5147 25.1097 12.8341C25.7903 12.1535 26.7134 11.7712 27.6759 11.7712ZM18.2404 3.06152C19.7803 3.06152 21.2572 3.67327 22.3462 4.76219C23.4351 5.85111 24.0468 7.32801 24.0468 8.86797C24.0468 10.4079 23.4351 11.8848 22.3462 12.9738C21.2572 14.0627 19.7803 14.6744 18.2404 14.6744C16.7004 14.6744 15.2235 14.0627 14.1346 12.9738C13.0457 11.8848 12.4339 10.4079 12.4339 8.86797C12.4339 7.32801 13.0457 5.85111 14.1346 4.76219C15.2235 3.67327 16.7004 3.06152 18.2404 3.06152Z" fill="#A0F901"/>
</svg>
